<mxfile host="app.diagrams.net" modified="2022-11-11T18:17:32.707Z" agent="5.0 (Windows NT 10.0; Win64; x64) AppleWebKit/537.36 (KHTML, like Gecko) Chrome/107.0.0.0 Safari/537.36 Edg/107.0.1418.35" etag="CO0WMVNpNzIf5i6KWYRM" version="20.5.3" type="github">
  <diagram id="wPrvyyBjBpwPHAtFZZG1" name="Page-1">
    <mxGraphModel dx="2201" dy="762" grid="1" gridSize="10" guides="1" tooltips="1" connect="1" arrows="1" fold="1" page="1" pageScale="1" pageWidth="827" pageHeight="1169" math="0" shadow="0">
      <root>
        <mxCell id="0" />
        <mxCell id="1" parent="0" />
        <mxCell id="VcJdVXKJF7oo9tozXP5s-3" value="" style="edgeStyle=orthogonalEdgeStyle;rounded=0;orthogonalLoop=1;jettySize=auto;html=1;entryX=0.5;entryY=0;entryDx=0;entryDy=0;" edge="1" parent="1" source="VcJdVXKJF7oo9tozXP5s-1" target="VcJdVXKJF7oo9tozXP5s-19">
          <mxGeometry relative="1" as="geometry">
            <Array as="points" />
          </mxGeometry>
        </mxCell>
        <mxCell id="VcJdVXKJF7oo9tozXP5s-1" value="path" style="strokeWidth=2;html=1;shape=mxgraph.flowchart.start_1;whiteSpace=wrap;" vertex="1" parent="1">
          <mxGeometry x="200" y="350" width="100" height="60" as="geometry" />
        </mxCell>
        <mxCell id="VcJdVXKJF7oo9tozXP5s-56" value="File" style="edgeStyle=orthogonalEdgeStyle;rounded=0;orthogonalLoop=1;jettySize=auto;html=1;" edge="1" parent="1" source="VcJdVXKJF7oo9tozXP5s-2" target="VcJdVXKJF7oo9tozXP5s-55">
          <mxGeometry relative="1" as="geometry" />
        </mxCell>
        <mxCell id="VcJdVXKJF7oo9tozXP5s-59" value="" style="edgeStyle=orthogonalEdgeStyle;rounded=0;orthogonalLoop=1;jettySize=auto;html=1;" edge="1" parent="1" source="VcJdVXKJF7oo9tozXP5s-2" target="VcJdVXKJF7oo9tozXP5s-58">
          <mxGeometry relative="1" as="geometry" />
        </mxCell>
        <mxCell id="VcJdVXKJF7oo9tozXP5s-2" value="File or &lt;br&gt;folder?" style="rhombus;whiteSpace=wrap;html=1;strokeWidth=2;" vertex="1" parent="1">
          <mxGeometry x="-110" y="640" width="80" height="80" as="geometry" />
        </mxCell>
        <mxCell id="VcJdVXKJF7oo9tozXP5s-25" value="No" style="edgeStyle=orthogonalEdgeStyle;rounded=0;orthogonalLoop=1;jettySize=auto;html=1;" edge="1" parent="1">
          <mxGeometry relative="1" as="geometry">
            <mxPoint x="50" y="680" as="sourcePoint" />
            <mxPoint x="-30" y="680" as="targetPoint" />
          </mxGeometry>
        </mxCell>
        <mxCell id="VcJdVXKJF7oo9tozXP5s-39" value="Yes" style="edgeStyle=orthogonalEdgeStyle;rounded=0;orthogonalLoop=1;jettySize=auto;html=1;" edge="1" parent="1" source="VcJdVXKJF7oo9tozXP5s-19">
          <mxGeometry relative="1" as="geometry">
            <mxPoint x="250" y="650" as="targetPoint" />
          </mxGeometry>
        </mxCell>
        <mxCell id="VcJdVXKJF7oo9tozXP5s-46" value="No" style="edgeStyle=orthogonalEdgeStyle;rounded=0;orthogonalLoop=1;jettySize=auto;html=1;entryX=0.5;entryY=0;entryDx=0;entryDy=0;" edge="1" parent="1" source="VcJdVXKJF7oo9tozXP5s-19" target="VcJdVXKJF7oo9tozXP5s-43">
          <mxGeometry relative="1" as="geometry">
            <mxPoint x="130" y="530" as="targetPoint" />
            <Array as="points">
              <mxPoint x="90" y="530" />
            </Array>
          </mxGeometry>
        </mxCell>
        <mxCell id="VcJdVXKJF7oo9tozXP5s-19" value="Network&lt;br&gt;file?" style="rhombus;whiteSpace=wrap;html=1;strokeWidth=2;" vertex="1" parent="1">
          <mxGeometry x="210" y="490" width="80" height="80" as="geometry" />
        </mxCell>
        <mxCell id="VcJdVXKJF7oo9tozXP5s-47" style="edgeStyle=orthogonalEdgeStyle;rounded=0;orthogonalLoop=1;jettySize=auto;html=1;entryX=1;entryY=0.5;entryDx=0;entryDy=0;" edge="1" parent="1" source="VcJdVXKJF7oo9tozXP5s-33" target="VcJdVXKJF7oo9tozXP5s-43">
          <mxGeometry relative="1" as="geometry" />
        </mxCell>
        <mxCell id="VcJdVXKJF7oo9tozXP5s-33" value="Add VSI prefix" style="rounded=1;whiteSpace=wrap;html=1;strokeWidth=2;" vertex="1" parent="1">
          <mxGeometry x="190" y="650" width="120" height="60" as="geometry" />
        </mxCell>
        <mxCell id="VcJdVXKJF7oo9tozXP5s-51" value="Yes" style="edgeStyle=orthogonalEdgeStyle;rounded=0;orthogonalLoop=1;jettySize=auto;html=1;" edge="1" parent="1" source="VcJdVXKJF7oo9tozXP5s-43" target="VcJdVXKJF7oo9tozXP5s-50">
          <mxGeometry relative="1" as="geometry" />
        </mxCell>
        <mxCell id="VcJdVXKJF7oo9tozXP5s-43" value="Compressed?" style="rhombus;whiteSpace=wrap;html=1;strokeWidth=2;" vertex="1" parent="1">
          <mxGeometry x="50" y="640" width="80" height="80" as="geometry" />
        </mxCell>
        <mxCell id="VcJdVXKJF7oo9tozXP5s-54" value="" style="edgeStyle=orthogonalEdgeStyle;rounded=0;orthogonalLoop=1;jettySize=auto;html=1;" edge="1" parent="1" source="VcJdVXKJF7oo9tozXP5s-50" target="VcJdVXKJF7oo9tozXP5s-53">
          <mxGeometry relative="1" as="geometry" />
        </mxCell>
        <mxCell id="VcJdVXKJF7oo9tozXP5s-50" value="&#xa;&lt;span style=&quot;color: rgb(0, 0, 0); font-family: Helvetica; font-size: 12px; font-style: normal; font-variant-ligatures: normal; font-variant-caps: normal; font-weight: 400; letter-spacing: normal; orphans: 2; text-align: center; text-indent: 0px; text-transform: none; widows: 2; word-spacing: 0px; -webkit-text-stroke-width: 0px; background-color: rgb(248, 249, 250); text-decoration-thickness: initial; text-decoration-style: initial; text-decoration-color: initial; float: none; display: inline !important;&quot;&gt;Add VSI prefix&lt;/span&gt;&#xa;&#xa;" style="rounded=1;whiteSpace=wrap;html=1;strokeWidth=2;" vertex="1" parent="1">
          <mxGeometry x="30" y="810" width="120" height="60" as="geometry" />
        </mxCell>
        <mxCell id="VcJdVXKJF7oo9tozXP5s-53" value="Read" style="ellipse;whiteSpace=wrap;html=1;rounded=1;strokeWidth=2;" vertex="1" parent="1">
          <mxGeometry x="30" y="950" width="120" height="60" as="geometry" />
        </mxCell>
        <mxCell id="VcJdVXKJF7oo9tozXP5s-55" value="Read" style="ellipse;whiteSpace=wrap;html=1;strokeWidth=2;" vertex="1" parent="1">
          <mxGeometry x="-290" y="650" width="120" height="60" as="geometry" />
        </mxCell>
        <mxCell id="VcJdVXKJF7oo9tozXP5s-58" value="Build list of paths" style="rounded=1;whiteSpace=wrap;html=1;strokeWidth=2;" vertex="1" parent="1">
          <mxGeometry x="-130" y="810" width="120" height="60" as="geometry" />
        </mxCell>
        <mxCell id="VcJdVXKJF7oo9tozXP5s-60" value="&lt;ol&gt;&lt;li&gt;&lt;span style=&quot;background-color: initial;&quot;&gt;local / not compressed / single file / single layer&lt;/span&gt;&lt;/li&gt;&lt;li&gt;&lt;span style=&quot;background-color: initial;&quot;&gt;local / not compressed / single file / all layers&lt;/span&gt;&lt;/li&gt;&lt;li&gt;&lt;span style=&quot;background-color: initial;&quot;&gt;local / not compressed / multiple files / single layer&lt;/span&gt;&lt;/li&gt;&lt;li&gt;&lt;span style=&quot;background-color: initial;&quot;&gt;local / not compressed / multiple files&lt;/span&gt;&lt;span style=&quot;background-color: initial;&quot;&gt;&amp;nbsp;/ all layers&lt;/span&gt;&lt;/li&gt;&lt;li&gt;&lt;span style=&quot;background-color: initial;&quot;&gt;local / not compressed / multiple files (nested) / single layer&lt;/span&gt;&lt;/li&gt;&lt;li&gt;&lt;span style=&quot;background-color: initial;&quot;&gt;local / not compressed / multiple files&lt;/span&gt;&lt;span style=&quot;background-color: initial;&quot;&gt;&amp;nbsp;(nested) / all layers&lt;/span&gt;&lt;/li&gt;&lt;ul&gt;&lt;/ul&gt;&lt;/ol&gt;&lt;ul&gt;&lt;li&gt;&amp;nbsp;&lt;/li&gt;&lt;/ul&gt;" style="text;html=1;strokeColor=none;fillColor=none;align=left;verticalAlign=middle;whiteSpace=wrap;rounded=0;" vertex="1" parent="1">
          <mxGeometry x="400" y="335" width="380" height="250" as="geometry" />
        </mxCell>
      </root>
    </mxGraphModel>
  </diagram>
</mxfile>
